<svg xmlns="http://www.w3.org/2000/svg" xmlns:xlink="http://www.w3.org/1999/xlink">
  <symbol id="svg-instagram" viewBox="0 0 1792 1792">
    <path d="M1490 1426v-648h-135q20 63 20 131 0 126-64 232.5t-174 168.5-240 62q-197 0-337-135.5t-140-327.5q0-68 20-131h-141v648q0 26 17.5 43.5t43.5 17.5h1069q25 0 43-17.5t18-43.5zm-284-533q0-124-90.5-211.5t-218.5-87.5q-127 0-217.5 87.5t-90.5 211.5 90.5 211.5 217.5 87.5q128 0 218.5-87.5t90.5-211.5zm284-360v-165q0-28-20-48.5t-49-20.5h-174q-29 0-49 20.5t-20 48.5v165q0 29 20 49t49 20h174q29 0 49-20t20-49zm174-208v1142q0 81-58 139t-139 58h-1142q-81 0-139-58t-58-139v-1142q0-81 58-139t139-58h1142q81 0 139 58t58 139z"/>
  </symbol>
  <symbol id="svg-facebook" viewBox="0 0 1792 1792">
    <path d="M1343 12v264h-157q-86 0-116 36t-30 108v189h293l-39 296h-254v759h-306v-759h-255v-296h255v-218q0-186 104-288.5t277-102.5q147 0 228 12z"/>
  </symbol>
  <symbol id="svg-twitter" viewBox="0 0 1792 1792">
    <path d="M1684 408q-67 98-162 167 1 14 1 42 0 130-38 259.5t-115.5 248.5-184.5 210.5-258 146-323 54.5q-271 0-496-145 35 4 78 4 225 0 401-138-105-2-188-64.5t-114-159.5q33 5 61 5 43 0 85-11-112-23-185.5-111.5t-73.5-205.5v-4q68 38 146 41-66-44-105-115t-39-154q0-88 44-163 121 149 294.5 238.5t371.5 99.5q-8-38-8-74 0-134 94.5-228.5t228.5-94.5q140 0 236 102 109-21 205-78-37 115-142 178 93-10 186-50z"/>
  </symbol>
  <symbol id="svg-arrow" viewBox="0 0 1792 1792">
    <path
     d="m 876.93293,0 0,1703.7283 -128.2848,-161.7759 -28.12938,29.1981 L 895.65023,1792 1071.4813,1579.1971 1043.869,1549.3541 914.9455,1705.3588 914.9455,0 876.93293,0 Z"/>
  </symbol>
</svg>
